<svg xmlns="http://www.w3.org/2000/svg" xmlns:xlink="http://www.w3.org/1999/xlink" width="647" height="402" viewBox="0 0 647 402">
  <defs>
    <filter id="Ellipse_10" x="19" y="0" width="37" height="37" filterUnits="userSpaceOnUse">
      <feOffset dy="3" input="SourceAlpha"/>
      <feGaussianBlur stdDeviation="3" result="blur"/>
      <feFlood flood-opacity="0.161"/>
      <feComposite operator="in" in2="blur"/>
      <feComposite in="SourceGraphic"/>
    </filter>
    <filter id="Ellipse_12" x="432" y="0" width="37" height="37" filterUnits="userSpaceOnUse">
      <feOffset dy="3" input="SourceAlpha"/>
      <feGaussianBlur stdDeviation="3" result="blur-2"/>
      <feFlood flood-opacity="0.161"/>
      <feComposite operator="in" in2="blur-2"/>
      <feComposite in="SourceGraphic"/>
    </filter>
    <filter id="Ellipse_14" x="432" y="107" width="37" height="37" filterUnits="userSpaceOnUse">
      <feOffset dy="3" input="SourceAlpha"/>
      <feGaussianBlur stdDeviation="3" result="blur-3"/>
      <feFlood flood-opacity="0.161"/>
      <feComposite operator="in" in2="blur-3"/>
      <feComposite in="SourceGraphic"/>
    </filter>
    <filter id="Ellipse_15" x="19" y="214" width="37" height="37" filterUnits="userSpaceOnUse">
      <feOffset dy="3" input="SourceAlpha"/>
      <feGaussianBlur stdDeviation="3" result="blur-4"/>
      <feFlood flood-opacity="0.161"/>
      <feComposite operator="in" in2="blur-4"/>
      <feComposite in="SourceGraphic"/>
    </filter>
    <filter id="Ellipse_16" x="225" y="214" width="37" height="37" filterUnits="userSpaceOnUse">
      <feOffset dy="3" input="SourceAlpha"/>
      <feGaussianBlur stdDeviation="3" result="blur-5"/>
      <feFlood flood-opacity="0.161"/>
      <feComposite operator="in" in2="blur-5"/>
      <feComposite in="SourceGraphic"/>
    </filter>
    <filter id="Ellipse_17" x="432" y="214" width="37" height="37" filterUnits="userSpaceOnUse">
      <feOffset dy="3" input="SourceAlpha"/>
      <feGaussianBlur stdDeviation="3" result="blur-6"/>
      <feFlood flood-opacity="0.161"/>
      <feComposite operator="in" in2="blur-6"/>
      <feComposite in="SourceGraphic"/>
    </filter>
    <filter id="Ellipse_18" x="19" y="321" width="37" height="37" filterUnits="userSpaceOnUse">
      <feOffset dy="3" input="SourceAlpha"/>
      <feGaussianBlur stdDeviation="3" result="blur-7"/>
      <feFlood flood-opacity="0.161"/>
      <feComposite operator="in" in2="blur-7"/>
      <feComposite in="SourceGraphic"/>
    </filter>
  </defs>
  <g id="Group_77" data-name="Group 77" transform="translate(-636 -368)">
    <g id="Rectangle_13" data-name="Rectangle 13" transform="translate(636 368)" fill="#fff" stroke="#3347c4" stroke-width="0.2" stroke-dasharray="7 4">
      <rect width="647" height="402" rx="5" stroke="none"/>
      <rect x="0.1" y="0.1" width="646.8" height="401.8" rx="4.9" fill="none"/>
    </g>
    <rect id="Rectangle_14" data-name="Rectangle 14" width="647" height="115" transform="translate(636 565)" fill="#f33" opacity="0.08"/>
    <path id="Rectangle_15" data-name="Rectangle 15" d="M0,0H647a0,0,0,0,1,0,0V85a5,5,0,0,1-5,5H5a5,5,0,0,1-5-5V0A0,0,0,0,1,0,0Z" transform="translate(636 680)" fill="#3347c4" opacity="0.08"/>
    <text id="Invoicing_and_Validation" data-name="Invoicing and Validation" transform="translate(718.5 554.5)" fill="#3e3e3e" font-size="12" font-family="Raleway-Bold, Raleway" font-weight="700"><tspan x="-68" y="0">Invoicing and Validation</tspan></text>
    <text id="PO_and_reserve_feed" data-name="PO and reserve feed" transform="translate(1209.5 668.5)" fill="#3e3e3e" font-size="12" font-family="Raleway-Bold, Raleway" font-weight="700"><tspan x="-58" y="0">PO and reserve feed</tspan></text>
    <text id="Shortage_process" data-name="Shortage process" transform="translate(1217.5 759)" fill="#3e3e3e" font-size="12" font-family="Raleway-Bold, Raleway" font-weight="700"><tspan x="-50" y="0">Shortage process</tspan></text>
    <line id="Line_2" data-name="Line 2" x2="36" transform="translate(839 409)" fill="none" stroke="#f33" stroke-width="0.5"/>
    <g id="Rectangle_4" data-name="Rectangle 4" transform="translate(673 383)" fill="#fff" stroke="#3347c4" stroke-width="0.25">
      <rect width="162" height="51" rx="5" stroke="none"/>
      <rect x="0.125" y="0.125" width="161.75" height="50.75" rx="4.875" fill="none"/>
    </g>
    <g id="Rectangle_9" data-name="Rectangle 9" transform="translate(673 597)" fill="#fff" stroke="#3347c4" stroke-width="0.25">
      <rect width="162" height="51" rx="5" stroke="none"/>
      <rect x="0.125" y="0.125" width="161.75" height="50.75" rx="4.875" fill="none"/>
    </g>
    <g id="Rectangle_12" data-name="Rectangle 12" transform="translate(673 704)" fill="#fff" stroke="#3347c4" stroke-width="0.25">
      <rect width="162" height="51" rx="5" stroke="none"/>
      <rect x="0.125" y="0.125" width="161.75" height="50.75" rx="4.875" fill="none"/>
    </g>
    <g id="Rectangle_5" data-name="Rectangle 5" transform="translate(879 383)" fill="#fff" stroke="#3347c4" stroke-width="0.25">
      <rect width="163" height="51" rx="5" stroke="none"/>
      <rect x="0.125" y="0.125" width="162.75" height="50.75" rx="4.875" fill="none"/>
    </g>
    <g id="Rectangle_10" data-name="Rectangle 10" transform="translate(879 597)" fill="#fff" stroke="#3347c4" stroke-width="0.25">
      <rect width="163" height="51" rx="5" stroke="none"/>
      <rect x="0.125" y="0.125" width="162.75" height="50.75" rx="4.875" fill="none"/>
    </g>
    <g id="Rectangle_8" data-name="Rectangle 8" transform="translate(879 490)" fill="#fff" stroke="#3347c4" stroke-width="0.25">
      <rect width="163" height="51" rx="5" stroke="none"/>
      <rect x="0.125" y="0.125" width="162.75" height="50.75" rx="4.875" fill="none"/>
    </g>
    <g id="Rectangle_6" data-name="Rectangle 6" transform="translate(1086 383)" fill="#fff" stroke="#3347c4" stroke-width="0.25">
      <rect width="162" height="51" rx="5" stroke="none"/>
      <rect x="0.125" y="0.125" width="161.75" height="50.75" rx="4.875" fill="none"/>
    </g>
    <g id="Rectangle_11" data-name="Rectangle 11" transform="translate(1086 597)" fill="#fff" stroke="#3347c4" stroke-width="0.25">
      <rect width="162" height="51" rx="5" stroke="none"/>
      <rect x="0.125" y="0.125" width="161.75" height="50.75" rx="4.875" fill="none"/>
    </g>
    <g id="Rectangle_7" data-name="Rectangle 7" transform="translate(1086 490)" fill="#fff" stroke="#3347c4" stroke-width="0.25">
      <rect width="162" height="51" rx="5" stroke="none"/>
      <rect x="0.125" y="0.125" width="161.75" height="50.75" rx="4.875" fill="none"/>
    </g>
    <text id="Order_Received_by_stockist" data-name="Order Received by stockist" transform="translate(697 397)" fill="#3347c4" font-size="10" font-family="Raleway-Medium, Raleway" font-weight="500"><tspan x="14" y="9">Order Received by </tspan><tspan x="39" y="21">stockist</tspan></text>
    <text id="Invoicing_information_updated_on_MedVol_Portal" data-name="Invoicing information updated on MedVol Portal" transform="translate(690 611)" fill="#3347c4" font-size="10" font-family="Raleway-Medium, Raleway" font-weight="500"><tspan x="15" y="9">Invoicing information </tspan><tspan x="3" y="21">updated on MedVol Portal</tspan></text>
    <text id="Credit_Note_Advise_generated_by_MedVol_next_month_by_15th" data-name="Credit Note Advise generated by MedVol next month by 15th" transform="translate(684 718)" fill="#3347c4" font-size="10" font-family="Raleway-Medium, Raleway" font-weight="500"><tspan x="1" y="9">Credit Note Advise generated </tspan><tspan x="2" y="21">by MedVol next month by 15</tspan><tspan y="21" font-size="5.833" baseline-shift="3.3329999446868896">th</tspan></text>
    <text id="Stockist_supplies_good_to_counter" data-name="Stockist supplies good to counter" transform="translate(903 397)" fill="#3347c4" font-size="10" font-family="Raleway-Medium, Raleway" font-weight="500"><tspan x="4" y="9">Stockist supplies good </tspan><tspan x="33" y="21">to counter</tspan></text>
    <text id="Depot_bill_the_product_and_dispatch_as_per_schedule" data-name="Depot bill the product and dispatch as per schedule" transform="translate(898 611)" fill="#3347c4" font-size="10" font-family="Raleway-Medium, Raleway" font-weight="500"><tspan x="1" y="9">Depot bill the product and </tspan><tspan x="3" y="21">dispatch as per schedule</tspan></text>
    <text id="Procure_from_CFA_and_supply_post_reciept" data-name="Procure from CFA and supply post reciept" transform="translate(903 504)" fill="#3347c4" font-size="10" font-family="Raleway-Medium, Raleway" font-weight="500"><tspan x="6" y="9">Procure from CFA and </tspan><tspan x="13" y="21">supply post reciept</tspan></text>
    <text id="Upload_invoice_on_MedVol_portal" data-name="Upload invoice on MedVol portal" transform="translate(1109 397)" fill="#3347c4" font-size="10" font-family="Raleway-Medium, Raleway" font-weight="500"><tspan x="15" y="9">Upload invoice on </tspan><tspan x="24" y="21">MedVol portal</tspan></text>
    <text id="As_per_schedule_generate_PO_and_send_to_respective_depot" data-name="As per schedule generate PO and send to respective depot" transform="translate(1096 611)" fill="#3347c4" font-size="10" font-family="Raleway-Medium, Raleway" font-weight="500"><tspan x="2" y="9">As per schedule generate PO </tspan><tspan x="1" y="21">and send to respective depot</tspan></text>
    <text id="Validation_by_MedVol_and_status_changed_to_Invoice" data-name="Validation by MedVol and status changed to Invoice" transform="translate(1106 504)" fill="#3347c4" font-size="10" font-family="Raleway-Medium, Raleway" font-weight="500"><tspan x="2" y="9">Validation by MedVol and </tspan><tspan x="1" y="21">status changed to Invoice</tspan></text>
    <path id="Polygon_1" data-name="Polygon 1" d="M2,0,4,4H0Z" transform="translate(876 407) rotate(90)" fill="#f33"/>
    <g id="Group_1" data-name="Group 1" transform="translate(0 -7)">
      <line id="Line_3" data-name="Line 3" x2="36" transform="translate(1045 416)" fill="none" stroke="#f33" stroke-width="0.5"/>
      <path id="Polygon_2" data-name="Polygon 2" d="M2,0,4,4H0Z" transform="translate(1082 414) rotate(90)" fill="#f33"/>
    </g>
    <g id="Group_7" data-name="Group 7" transform="translate(2127 1039) rotate(180)">
      <line id="Line_3-2" data-name="Line 3" x2="36" transform="translate(1045 416)" fill="none" stroke="#f33" stroke-width="0.5"/>
      <path id="Polygon_2-2" data-name="Polygon 2" d="M2,0,4,4H0Z" transform="translate(1082 414) rotate(90)" fill="#f33"/>
    </g>
    <g id="Group_8" data-name="Group 8" transform="translate(1921 1039) rotate(180)">
      <line id="Line_3-3" data-name="Line 3" x2="36" transform="translate(1045 416)" fill="none" stroke="#f33" stroke-width="0.5"/>
      <path id="Polygon_2-3" data-name="Polygon 2" d="M2,0,4,4H0Z" transform="translate(1082 414) rotate(90)" fill="#f33"/>
    </g>
    <g id="Group_11" data-name="Group 11" transform="translate(525.5 1740) rotate(-90)">
      <line id="Line_3-4" data-name="Line 3" x2="11.5" transform="translate(1069.5 416)" fill="none" stroke="#f33" stroke-width="0.5"/>
      <path id="Polygon_2-4" data-name="Polygon 2" d="M2,0,4,4H0Z" transform="translate(1082 414) rotate(90)" fill="#f33"/>
    </g>
    <g id="Group_2" data-name="Group 2" transform="translate(1583 -601.5) rotate(90)">
      <line id="Line_3-5" data-name="Line 3" x2="36" transform="translate(1045 416)" fill="none" stroke="#f33" stroke-width="0.5"/>
      <path id="Polygon_2-5" data-name="Polygon 2" d="M2,0,4,4H0Z" transform="translate(1082 414) rotate(90)" fill="#f33"/>
    </g>
    <g id="Group_3" data-name="Group 3" transform="translate(544 1526) rotate(-90)">
      <line id="Line_3-6" data-name="Line 3" x2="36" transform="translate(1045 416)" fill="none" stroke="#f33" stroke-width="0.5"/>
      <path id="Polygon_2-6" data-name="Polygon 2" d="M2,0,4,4H0Z" transform="translate(1082 414) rotate(90)" fill="#f33"/>
    </g>
    <g id="Group_9" data-name="Group 9">
      <g id="Group_4" data-name="Group 4" transform="translate(1171 -601) rotate(90)">
        <line id="Line_3-7" data-name="Line 3" x2="71" transform="translate(1045 416)" fill="none" stroke="#f33" stroke-width="0.5"/>
      </g>
      <g id="Group_5" data-name="Group 5" transform="translate(-207.75 99.5)">
        <line id="Line_3-8" data-name="Line 3" x2="119.25" transform="translate(962.5 416)" fill="none" stroke="#f33" stroke-width="0.5"/>
        <path id="Polygon_2-7" data-name="Polygon 2" d="M2,0,4,4H0Z" transform="translate(1082.75 414) rotate(90)" fill="#f33"/>
      </g>
    </g>
    <g id="Group_10" data-name="Group 10" transform="translate(960.5 731.5) rotate(180)">
      <g id="Group_4-2" data-name="Group 4" transform="translate(0.25 73.5) rotate(-90)">
        <line id="Line_3-9" data-name="Line 3" x2="71" fill="none" stroke="#f33" stroke-width="0.5"/>
      </g>
      <g id="Group_5-2" data-name="Group 5" transform="translate(0 0)">
        <line id="Line_3-10" data-name="Line 3" x2="119.25" transform="translate(0 2)" fill="none" stroke="#f33" stroke-width="0.5"/>
        <path id="Polygon_2-8" data-name="Polygon 2" d="M2,0,4,4H0Z" transform="translate(120.25) rotate(90)" fill="#f33"/>
      </g>
    </g>
    <g id="Group_12" data-name="Group 12" transform="translate(749.226 668.385)">
      <g id="Group_4-3" data-name="Group 4" transform="translate(0.25 20.115) rotate(-90)">
        <line id="Line_3-11" data-name="Line 3" x2="28" transform="translate(-10 6.997)" fill="none" stroke="#f33" stroke-width="0.5"/>
      </g>
      <g id="Group_5-3" data-name="Group 5" transform="translate(0 0)">
        <line id="Line_3-12" data-name="Line 3" x2="185" transform="translate(7.274 2)" fill="none" stroke="#f33" stroke-width="0.5"/>
      </g>
    </g>
    <g id="Group_6" data-name="Group 6" transform="translate(1583 -494.5) rotate(90)">
      <line id="Line_3-13" data-name="Line 3" x2="36" transform="translate(1045 416)" fill="none" stroke="#f33" stroke-width="0.5"/>
      <path id="Polygon_2-9" data-name="Polygon 2" d="M2,0,4,4H0Z" transform="translate(1082 414) rotate(90)" fill="#f33"/>
    </g>
    <g transform="matrix(1, 0, 0, 1, 636, 368)" filter="url(#Ellipse_10)">
      <circle id="Ellipse_10-2" data-name="Ellipse 10" cx="9.5" cy="9.5" r="9.5" transform="translate(28 6)" fill="#fff"/>
    </g>
    <g transform="matrix(1, 0, 0, 1, 636, 368)" filter="url(#Ellipse_12)">
      <circle id="Ellipse_12-2" data-name="Ellipse 12" cx="9.5" cy="9.5" r="9.5" transform="translate(441 6)" fill="#fff"/>
    </g>
    <g transform="matrix(1, 0, 0, 1, 636, 368)" filter="url(#Ellipse_14)">
      <circle id="Ellipse_14-2" data-name="Ellipse 14" cx="9.5" cy="9.5" r="9.5" transform="translate(441 113)" fill="#fff"/>
    </g>
    <g transform="matrix(1, 0, 0, 1, 636, 368)" filter="url(#Ellipse_15)">
      <circle id="Ellipse_15-2" data-name="Ellipse 15" cx="9.5" cy="9.5" r="9.5" transform="translate(28 220)" fill="#fff"/>
    </g>
    <g transform="matrix(1, 0, 0, 1, 636, 368)" filter="url(#Ellipse_16)">
      <circle id="Ellipse_16-2" data-name="Ellipse 16" cx="9.5" cy="9.5" r="9.5" transform="translate(234 220)" fill="#fff"/>
    </g>
    <g transform="matrix(1, 0, 0, 1, 636, 368)" filter="url(#Ellipse_17)">
      <circle id="Ellipse_17-2" data-name="Ellipse 17" cx="9.5" cy="9.5" r="9.5" transform="translate(441 220)" fill="#fff"/>
    </g>
    <g transform="matrix(1, 0, 0, 1, 636, 368)" filter="url(#Ellipse_18)">
      <circle id="Ellipse_18-2" data-name="Ellipse 18" cx="9.5" cy="9.5" r="9.5" transform="translate(28 327)" fill="#fff"/>
    </g>
    <text id="_1" data-name="1" transform="translate(673.5 386.5)" fill="#3347c4" font-size="10" font-family="Raleway-Bold, Raleway" font-weight="700"><tspan x="-2" y="0">1</tspan></text>
    <text id="_2" data-name="2" transform="translate(1086.5 386.5)" fill="#3347c4" font-size="10" font-family="Raleway-Bold, Raleway" font-weight="700"><tspan x="-2" y="0">2</tspan></text>
    <text id="_3" data-name="3" transform="translate(1086.5 493.5)" fill="#3347c4" font-size="10" font-family="Raleway-Bold, Raleway" font-weight="700"><tspan x="-2" y="0">3</tspan></text>
    <text id="_4" data-name="4" transform="translate(673 600.5)" fill="#3347c4" font-size="10" font-family="Raleway-Bold, Raleway" font-weight="700"><tspan x="-2" y="0">4</tspan></text>
    <text id="_5" data-name="5" transform="translate(879.5 600.5)" fill="#3347c4" font-size="10" font-family="Raleway-Bold, Raleway" font-weight="700"><tspan x="-2" y="0">5</tspan></text>
    <text id="_6" data-name="6" transform="translate(1086.5 601)" fill="#3347c4" font-size="10" font-family="Raleway-Bold, Raleway" font-weight="700"><tspan x="-3" y="0">6</tspan></text>
    <text id="_7" data-name="7" transform="translate(673.5 707.5)" fill="#3347c4" font-size="10" font-family="Raleway-Bold, Raleway" font-weight="700"><tspan x="-2" y="0">7</tspan></text>
  </g>
</svg>
