<svg xmlns="http://www.w3.org/2000/svg" width="31" height="31" viewBox="0 0 31 31">
  <g id="Group_42" data-name="Group 42" transform="translate(-787 -1221)">
    <circle id="Ellipse_9" data-name="Ellipse 9" cx="15.5" cy="15.5" r="15.5" transform="translate(787 1221)" fill="#f33" opacity="0.05"/>
    <path id="Icon_awesome-boxes" data-name="Icon awesome-boxes" d="M15.434,7.938h-2.2v2.646L12.347,10l-.882.587V7.938H9.26a.442.442,0,0,0-.441.441V13.67a.442.442,0,0,0,.441.441h6.174a.442.442,0,0,0,.441-.441V8.379A.442.442,0,0,0,15.434,7.938ZM4.851,6.174h6.174a.442.442,0,0,0,.441-.441V.441A.442.442,0,0,0,11.024,0h-2.2V2.646l-.882-.587-.882.587V0h-2.2A.442.442,0,0,0,4.41.441V5.733A.442.442,0,0,0,4.851,6.174ZM6.615,7.938H4.41v2.646L3.528,10l-.882.587V7.938H.441A.442.442,0,0,0,0,8.379V13.67a.442.442,0,0,0,.441.441H6.615a.442.442,0,0,0,.441-.441V8.379A.442.442,0,0,0,6.615,7.938Z" transform="translate(794.562 1229.444)" fill="#3347c4"/>
  </g>
</svg>
