<svg xmlns="http://www.w3.org/2000/svg" width="45" height="45" viewBox="0 0 45 45">
  <g id="Group_68" data-name="Group 68" transform="translate(-862 -946)">
    <circle id="Ellipse_7" data-name="Ellipse 7" cx="22.5" cy="22.5" r="22.5" transform="translate(862 946)" fill="#f33" opacity="0.05"/>
    <path id="Icon_awesome-laptop" data-name="Icon awesome-laptop" d="M19.057,12.7h-7.4a.963.963,0,0,1-1,.977H8.8a1.037,1.037,0,0,1-1-.977H.489A.49.49,0,0,0,0,13.193v.489a1.96,1.96,0,0,0,1.955,1.955H17.591a1.96,1.96,0,0,0,1.955-1.955v-.489A.49.49,0,0,0,19.057,12.7ZM17.591,1.466A1.47,1.47,0,0,0,16.125,0H3.42A1.47,1.47,0,0,0,1.955,1.466V11.727H17.591ZM15.636,9.773H3.909V1.955H15.636Z" transform="translate(874.228 960.682)" fill="#3347c4"/>
  </g>
</svg>
